<svg version="1.1" xmlns="http://www.w3.org/2000/svg" viewBox="0 0 572.6573585987644 578.0590938645064" width="1717.9720757962932" height="1734.1772815935192">
  <!-- svg-source:excalidraw -->
  
  <defs>
    <style class="style-fonts">
      @font-face {
        font-family: "Virgil";
        src: url("https://excalidraw.com/Virgil.woff2");
      }
      @font-face {
        font-family: "Cascadia";
        src: url("https://excalidraw.com/Cascadia.woff2");
      }
    </style>
    
  </defs>
  <rect x="0" y="0" width="572.6573585987644" height="578.0590938645064" fill="#ffffff"></rect><g transform="translate(10 470.284423828125) rotate(0 257.61993408203125 -230.1422119140625)" stroke="none"><path fill="#000000" d="M -0.95,-1.23 Q -0.95,-1.23 3.03,-4.26 7.02,-7.28 13.24,-14.14 19.45,-21.00 25.20,-30.24 30.95,-39.48 36.74,-51.17 42.53,-62.87 49.88,-80.62 57.23,-98.37 63.94,-114.99 70.66,-131.61 89.95,-187.44 109.24,-243.27 119.05,-271.66 128.86,-300.04 134.33,-316.38 139.81,-332.72 143.20,-343.82 146.59,-354.92 148.94,-364.14 151.28,-373.35 154.05,-385.69 156.82,-398.03 158.50,-406.68 160.18,-415.34 161.78,-424.02 163.39,-432.71 164.44,-437.95 165.50,-443.20 166.31,-447.76 167.13,-452.31 167.47,-454.59 167.82,-456.86 168.24,-458.15 168.66,-459.44 170.05,-460.26 171.43,-461.08 172.83,-460.38 174.24,-459.68 176.57,-458.61 178.90,-457.54 183.89,-455.72 188.88,-453.90 199.78,-451.04 210.68,-448.19 225.63,-444.80 240.58,-441.42 268.91,-434.43 297.24,-427.43 317.77,-422.57 338.30,-417.71 353.58,-414.76 368.85,-411.81 379.61,-410.56 390.36,-409.31 401.45,-408.77 412.55,-408.23 419.79,-408.00 427.03,-407.77 432.47,-407.67 437.92,-407.57 443.24,-407.53 448.56,-407.48 456.78,-407.46 464.99,-407.45 472.01,-407.44 479.03,-407.43 484.89,-407.42 490.74,-407.42 495.54,-407.42 500.35,-407.41 504.03,-407.41 507.71,-407.41 509.88,-407.41 512.04,-407.41 512.25,-407.38 512.46,-407.34 512.65,-407.24 512.84,-407.14 512.98,-406.99 513.13,-406.83 513.22,-406.64 513.31,-406.45 513.33,-406.24 513.35,-406.02 513.31,-405.82 513.26,-405.61 513.15,-405.43 513.04,-405.24 512.88,-405.11 512.72,-404.97 512.52,-404.89 512.32,-404.81 512.11,-404.80 511.90,-404.79 511.69,-404.84 511.49,-404.90 511.31,-405.02 511.13,-405.14 511.00,-405.31 510.88,-405.48 510.81,-405.68 510.74,-405.88 510.74,-406.10 510.74,-406.31 510.81,-406.51 510.88,-406.71 511.01,-406.88 511.13,-407.05 511.31,-407.17 511.49,-407.29 511.69,-407.35 511.90,-407.40 512.11,-407.39 512.32,-407.38 512.52,-407.30 512.72,-407.22 512.88,-407.08 513.04,-406.95 513.15,-406.76 513.26,-406.58 513.31,-406.37 513.35,-406.17 513.33,-405.95 513.31,-405.74 513.22,-405.55 513.13,-405.36 512.98,-405.20 512.83,-405.05 512.65,-404.95 512.46,-404.85 512.25,-404.81 512.04,-404.78 512.04,-404.78 512.04,-404.78 509.88,-404.78 507.71,-404.78 504.03,-404.78 500.34,-404.78 495.54,-404.78 490.74,-404.78 484.88,-404.78 479.03,-404.78 472.01,-404.79 464.99,-404.80 456.77,-404.81 448.54,-404.83 443.21,-404.86 437.87,-404.90 432.41,-404.99 426.94,-405.09 419.68,-405.31 412.42,-405.53 401.23,-406.05 390.04,-406.58 379.19,-407.83 368.33,-409.08 352.99,-412.01 337.65,-414.94 317.10,-419.76 296.54,-424.59 268.23,-431.52 239.92,-438.45 224.90,-441.77 209.89,-445.09 198.82,-447.88 187.76,-450.68 182.59,-452.41 177.42,-454.15 173.91,-455.29 170.41,-456.44 170.06,-454.14 169.72,-451.85 168.90,-447.27 168.07,-442.69 167.02,-437.46 165.97,-432.23 164.37,-423.53 162.77,-414.83 161.08,-406.14 159.39,-397.45 156.61,-385.08 153.84,-372.70 151.48,-363.43 149.12,-354.15 145.73,-343.01 142.33,-331.87 136.85,-315.52 131.38,-299.17 121.58,-270.78 111.77,-242.39 92.47,-186.49 73.16,-130.60 66.45,-113.96 59.75,-97.33 52.38,-79.49 45.01,-61.64 39.17,-49.82 33.34,-37.99 27.47,-28.53 21.60,-19.07 15.22,-11.99 8.85,-4.91 4.90,-1.84 0.95,1.23 0.79,1.33 0.62,1.43 0.44,1.48 0.26,1.53 0.07,1.54 -0.10,1.55 -0.29,1.52 -0.47,1.48 -0.64,1.40 -0.82,1.32 -0.96,1.21 -1.11,1.09 -1.22,0.94 -1.34,0.79 -1.41,0.62 -1.49,0.45 -1.52,0.26 -1.56,0.07 -1.54,-0.10 -1.53,-0.29 -1.47,-0.47 -1.41,-0.65 -1.31,-0.81 -1.22,-0.97 -1.08,-1.10 -0.95,-1.23 -0.95,-1.23 L -0.95,-1.23 Z"></path></g><g transform="translate(11.826492625525134 470.9429296544422) rotate(0 275.41543298661963 -157.3669017683609)" stroke="none"><path fill="#000000" d="M 0,-1.56 Q 0,-1.56 5.24,-1.52 10.48,-1.49 17.89,-1.46 25.30,-1.44 41.63,-1.42 57.96,-1.40 69.40,-1.39 80.83,-1.38 90.35,-1.37 99.86,-1.36 110.98,-1.15 122.10,-0.94 134.33,0.24 146.55,1.43 158.75,3.67 170.94,5.92 189.61,11.39 208.27,16.86 220.31,21.05 232.35,25.25 240.20,28.86 248.05,32.47 252.37,34.75 256.68,37.03 259.65,38.89 262.61,40.76 264.20,41.68 265.80,42.60 267.08,43.31 268.37,44.01 269.48,44.46 270.60,44.91 273.21,46.39 275.82,47.87 281.40,51.29 286.98,54.71 291.16,57.03 295.33,59.35 299.53,61.47 303.73,63.60 307.69,65.55 311.64,67.49 314.88,69.07 318.11,70.65 320.60,71.95 323.09,73.25 325.03,74.37 326.96,75.49 328.46,76.35 329.96,77.22 331.26,78.06 332.57,78.90 333.78,79.51 335.00,80.12 337.38,81.40 339.76,82.68 341.64,83.89 343.51,85.10 346.31,86.79 349.12,88.47 350.87,89.52 352.61,90.56 354.00,91.28 355.38,91.99 356.40,92.47 357.41,92.94 358.76,93.58 360.11,94.23 359.18,94.95 358.26,95.68 358.12,94.55 357.98,93.43 358.43,91.21 358.88,88.99 360.00,86.10 361.11,83.21 363.81,78.86 366.50,74.51 371.02,67.64 375.54,60.76 385.72,40.01 395.90,19.25 412.46,-23.27 429.02,-65.80 446.44,-114.07 463.86,-162.34 475.92,-198.39 487.99,-234.44 496.03,-260.32 504.08,-286.19 509.91,-304.95 515.74,-323.71 520.26,-337.10 524.79,-350.50 529.55,-362.41 534.31,-374.33 537.28,-381.22 540.25,-388.11 542.12,-392.29 543.99,-396.47 545.12,-399.16 546.25,-401.84 547.08,-404.26 547.91,-406.67 548.71,-409.53 549.51,-412.39 549.63,-412.59 549.75,-412.78 549.93,-412.93 550.11,-413.08 550.32,-413.16 550.54,-413.24 550.77,-413.25 551.00,-413.26 551.22,-413.20 551.44,-413.13 551.63,-413.00 551.82,-412.87 551.96,-412.68 552.10,-412.50 552.17,-412.28 552.24,-412.06 552.24,-411.83 552.23,-411.60 552.16,-411.38 552.08,-411.16 551.94,-410.98 551.79,-410.79 551.60,-410.67 551.41,-410.54 551.18,-410.48 550.96,-410.42 550.73,-410.44 550.50,-410.45 550.29,-410.54 550.07,-410.63 549.90,-410.78 549.72,-410.93 549.61,-411.13 549.49,-411.33 549.45,-411.56 549.40,-411.79 549.43,-412.02 549.45,-412.25 549.55,-412.45 549.65,-412.66 549.82,-412.83 549.98,-412.99 550.18,-413.10 550.39,-413.20 550.62,-413.24 550.85,-413.27 551.07,-413.23 551.30,-413.19 551.50,-413.08 551.71,-412.97 551.86,-412.80 552.02,-412.63 552.11,-412.42 552.21,-412.21 552.23,-411.98 552.25,-411.75 552.20,-411.52 552.15,-411.30 552.15,-411.30 552.15,-411.30 551.28,-408.56 550.41,-405.82 549.55,-403.32 548.70,-400.81 547.56,-398.10 546.41,-395.39 544.56,-391.22 542.70,-387.05 539.76,-380.19 536.81,-373.33 532.08,-361.48 527.36,-349.63 522.86,-336.26 518.36,-322.90 512.55,-304.13 506.74,-285.36 498.72,-259.45 490.70,-233.54 478.66,-197.44 466.62,-161.35 449.25,-113.02 431.87,-64.70 415.33,-22.01 398.79,20.66 388.61,41.64 378.43,62.62 374.07,69.52 369.70,76.43 367.36,80.50 365.01,84.58 364.25,87.10 363.50,89.63 363.39,91.55 363.29,93.48 363.25,94.69 363.22,95.89 362.60,97.14 361.98,98.39 359.85,98.25 357.72,98.11 356.58,97.26 355.44,96.40 354.52,95.77 353.59,95.15 352.26,94.32 350.93,93.50 349.15,92.52 347.37,91.55 344.48,90.00 341.58,88.45 339.58,87.43 337.58,86.41 335.26,85.04 332.94,83.66 331.75,82.66 330.56,81.65 329.44,80.73 328.31,79.80 326.96,78.84 325.60,77.88 323.70,76.81 321.80,75.75 319.33,74.49 316.86,73.24 313.61,71.70 310.35,70.16 306.35,68.27 302.36,66.37 298.07,64.30 293.78,62.23 289.48,59.98 285.18,57.73 279.55,54.46 273.91,51.19 271.31,49.78 268.72,48.37 267.66,47.57 266.60,46.76 265.44,45.90 264.28,45.04 262.74,44.01 261.21,42.99 258.33,41.17 255.45,39.36 251.20,37.12 246.94,34.87 239.21,31.31 231.48,27.75 219.51,23.57 207.53,19.40 188.99,13.97 170.46,8.54 158.37,6.32 146.29,4.10 134.17,2.92 122.05,1.75 110.96,1.56 99.86,1.36 90.35,1.37 80.83,1.38 69.40,1.39 57.96,1.40 41.63,1.42 25.30,1.44 17.89,1.46 10.48,1.49 5.24,1.52 0,1.56 -0.18,1.53 -0.37,1.51 -0.54,1.45 -0.72,1.38 -0.88,1.27 -1.03,1.16 -1.16,1.02 -1.28,0.88 -1.37,0.72 -1.46,0.55 -1.50,0.37 -1.55,0.18 -1.55,-0.00 -1.55,-0.18 -1.50,-0.37 -1.46,-0.55 -1.37,-0.72 -1.28,-0.88 -1.16,-1.02 -1.03,-1.16 -0.88,-1.27 -0.72,-1.38 -0.54,-1.45 -0.37,-1.51 -0.18,-1.53 0.00,-1.56 0.00,-1.56 L 0,-1.56 Z"></path></g><g transform="translate(180.7451879295295 153.48167938883262) rotate(0 32.08794715593285 -26.10033890270961)" stroke="none"><path fill="#2f9e44" d="M -3.28,-2.55 Q -3.28,-2.55 -0.69,-5.64 1.88,-8.72 5.78,-12.89 9.68,-17.06 11.92,-19.62 14.15,-22.18 15.94,-24.31 17.72,-26.44 21.07,-29.62 24.41,-32.80 28.18,-36.29 31.95,-39.79 34.22,-42.15 36.48,-44.52 38.93,-47.33 41.38,-50.14 43.00,-52.24 44.62,-54.35 45.01,-54.87 45.41,-55.40 45.87,-55.80 46.33,-56.21 46.87,-56.49 47.41,-56.77 48.00,-56.91 48.59,-57.06 49.20,-57.05 49.81,-57.05 50.40,-56.90 51.00,-56.76 51.53,-56.47 52.07,-56.19 52.53,-55.78 52.98,-55.38 53.33,-54.87 53.67,-54.37 53.89,-53.80 54.10,-53.23 54.17,-52.62 54.24,-52.02 54.17,-51.41 54.09,-50.81 53.87,-50.24 53.66,-49.67 53.31,-49.17 52.96,-48.67 53.34,-51.46 53.72,-54.25 55.16,-50.69 56.61,-47.13 58.14,-43.77 59.66,-40.40 60.59,-38.33 61.52,-36.25 62.81,-33.44 64.09,-30.64 65.14,-28.45 66.18,-26.26 66.90,-24.25 67.62,-22.24 69.19,-18.05 70.75,-13.86 70.61,-12.81 70.46,-11.75 69.98,-10.80 69.51,-9.84 68.75,-9.09 68.00,-8.34 67.04,-7.87 66.09,-7.40 65.03,-7.26 63.97,-7.12 62.93,-7.32 61.88,-7.53 60.96,-8.05 60.03,-8.58 59.32,-9.37 58.61,-10.17 58.20,-11.15 57.78,-12.13 57.69,-13.19 57.61,-14.25 57.87,-15.28 58.13,-16.32 58.71,-17.21 59.28,-18.11 60.11,-18.77 60.95,-19.44 61.95,-19.80 62.95,-20.17 64.01,-20.19 65.08,-20.22 66.09,-19.90 67.11,-19.59 67.98,-18.96 68.84,-18.34 69.46,-17.47 70.08,-16.61 70.39,-15.59 70.70,-14.57 70.66,-13.51 70.63,-12.44 70.26,-11.44 69.89,-10.44 69.22,-9.61 68.55,-8.79 67.65,-8.22 66.75,-7.64 65.72,-7.39 64.69,-7.14 63.63,-7.23 62.56,-7.32 61.59,-7.74 60.61,-8.16 59.82,-8.88 59.03,-9.59 58.51,-10.52 57.99,-11.45 57.79,-12.49 57.59,-13.54 57.59,-13.54 57.59,-13.54 56.73,-15.57 55.86,-17.59 55.29,-19.80 54.72,-22.01 53.99,-24.15 53.26,-26.29 52.27,-29.01 51.27,-31.73 50.31,-33.93 49.35,-36.13 48.03,-39.66 46.70,-43.18 45.74,-46.39 44.78,-49.60 45.10,-52.50 45.41,-55.40 45.87,-55.80 46.33,-56.20 46.87,-56.49 47.41,-56.77 48.00,-56.91 48.59,-57.06 49.20,-57.05 49.81,-57.05 50.40,-56.90 51.00,-56.76 51.53,-56.47 52.07,-56.19 52.53,-55.78 52.98,-55.38 53.33,-54.87 53.67,-54.37 53.89,-53.80 54.10,-53.23 54.17,-52.62 54.24,-52.02 54.17,-51.41 54.09,-50.81 53.87,-50.24 53.66,-49.67 53.31,-49.17 52.96,-48.67 51.88,-47.79 50.79,-46.91 48.99,-45.44 47.20,-43.96 44.32,-41.71 41.43,-39.46 39.02,-37.24 36.60,-35.02 33.07,-31.40 29.55,-27.79 26.53,-24.44 23.52,-21.10 21.55,-19.17 19.59,-17.24 17.29,-14.81 14.99,-12.38 11.49,-8.17 7.99,-3.95 5.64,-0.69 3.28,2.55 2.92,2.91 2.57,3.26 2.14,3.52 1.71,3.79 1.23,3.94 0.75,4.09 0.25,4.12 -0.24,4.15 -0.73,4.06 -1.22,3.97 -1.68,3.77 -2.14,3.56 -2.53,3.25 -2.93,2.94 -3.24,2.55 -3.55,2.16 -3.76,1.70 -3.96,1.24 -4.06,0.75 -4.15,0.26 -4.12,-0.24 -4.09,-0.74 -3.94,-1.22 -3.79,-1.69 -3.53,-2.12 -3.28,-2.55 -3.28,-2.55 L -3.28,-2.55 Z"></path></g><g transform="translate(180.3774399514259 157.69295537180642) rotate(0 35.289608077035155 4.433348040325427)" stroke="none"><path fill="#2f9e44" d="M 0,-5.05 Q 0,-5.05 2.45,-5.09 4.91,-5.13 7.20,-5.18 9.48,-5.23 13.19,-4.94 16.91,-4.65 19.56,-4.46 22.21,-4.28 24.79,-3.96 27.38,-3.64 29.80,-3.30 32.22,-2.97 34.35,-2.73 36.47,-2.48 39.75,-2.19 43.02,-1.90 46.75,-1.35 50.47,-0.81 52.72,-0.56 54.97,-0.31 57.48,-0.15 59.98,-0.00 62.60,0.30 65.23,0.61 68.61,1.47 72.00,2.34 73.01,2.74 74.01,3.14 74.83,3.84 75.66,4.53 76.22,5.46 76.77,6.38 77.01,7.44 77.24,8.49 77.12,9.57 77.01,10.64 76.56,11.62 76.10,12.60 75.36,13.39 74.62,14.17 73.67,14.68 72.71,15.19 71.65,15.36 70.58,15.54 69.51,15.36 68.45,15.19 67.49,14.68 66.54,14.18 65.80,13.40 65.05,12.61 64.60,11.63 64.14,10.65 64.03,9.58 63.91,8.51 64.14,7.45 64.37,6.40 64.93,5.47 65.48,4.54 66.31,3.84 67.13,3.14 68.13,2.74 69.13,2.34 70.21,2.28 71.29,2.22 72.33,2.51 73.37,2.80 74.27,3.41 75.16,4.01 75.82,4.87 76.47,5.73 76.82,6.75 77.16,7.78 77.16,8.86 77.16,9.94 76.82,10.96 76.47,11.98 75.82,12.84 75.17,13.71 74.28,14.31 73.38,14.92 72.34,15.21 71.30,15.50 70.22,15.44 69.14,15.38 69.14,15.38 69.15,15.38 65.48,14.34 61.82,13.30 59.35,12.78 56.89,12.27 54.68,11.87 52.46,11.48 50.36,10.99 48.26,10.50 44.89,9.81 41.52,9.13 38.25,8.54 34.98,7.96 32.80,7.59 30.63,7.22 28.28,6.81 25.94,6.40 23.63,6.02 21.32,5.65 18.96,5.38 16.59,5.12 13.04,5.17 9.48,5.23 7.20,5.18 4.91,5.13 2.45,5.09 0,5.05 -0.60,4.97 -1.20,4.90 -1.77,4.68 -2.34,4.47 -2.84,4.12 -3.34,3.78 -3.75,3.32 -4.15,2.86 -4.44,2.33 -4.72,1.79 -4.86,1.19 -5.01,0.60 -5.01,-0.00 -5.01,-0.60 -4.86,-1.20 -4.72,-1.79 -4.43,-2.33 -4.15,-2.86 -3.75,-3.32 -3.34,-3.78 -2.84,-4.12 -2.34,-4.47 -1.77,-4.68 -1.20,-4.90 -0.60,-4.97 0.00,-5.05 0.00,-5.05 L 0,-5.05 Z"></path></g><g transform="translate(239.54286399286502 164.67479480733846) rotate(0 20.361279724043925 -16.267877049551544)" stroke="none"><path fill="#2f9e44" d="M -2.08,-4.73 Q -2.08,-4.73 -0.01,-5.70 2.06,-6.67 4.35,-8.04 6.64,-9.40 9.67,-11.92 12.70,-14.43 14.28,-15.92 15.86,-17.42 17.48,-19.00 19.11,-20.59 21.88,-23.41 24.65,-26.22 26.77,-28.27 28.90,-30.33 30.79,-31.97 32.68,-33.62 35.14,-35.79 37.61,-37.97 38.56,-38.33 39.51,-38.68 40.52,-38.71 41.53,-38.75 42.51,-38.45 43.48,-38.16 44.30,-37.57 45.13,-36.98 45.73,-36.16 46.32,-35.34 46.62,-34.37 46.93,-33.41 46.90,-32.39 46.88,-31.38 46.53,-30.42 46.19,-29.47 45.56,-28.68 44.93,-27.88 44.07,-27.33 43.22,-26.78 42.24,-26.53 41.26,-26.28 40.24,-26.36 39.23,-26.44 38.30,-26.84 37.37,-27.23 36.61,-27.91 35.85,-28.58 35.35,-29.46 34.84,-30.34 34.65,-31.34 34.45,-32.33 34.58,-33.34 34.72,-34.34 35.16,-35.25 35.61,-36.17 36.32,-36.89 37.04,-37.61 37.94,-38.06 38.85,-38.52 39.85,-38.66 40.86,-38.80 41.86,-38.61 42.85,-38.42 43.74,-37.93 44.62,-37.43 45.30,-36.68 45.98,-35.93 46.39,-35.00 46.79,-34.07 46.88,-33.06 46.97,-32.05 46.73,-31.06 46.49,-30.08 45.94,-29.22 45.40,-28.37 44.61,-27.73 43.83,-27.09 43.83,-27.09 43.83,-27.09 43.03,-26.40 42.23,-25.71 40.49,-24.26 38.74,-22.81 36.68,-21.29 34.62,-19.77 32.21,-17.68 29.79,-15.59 28.24,-14.13 26.70,-12.67 24.95,-11.03 23.21,-9.39 21.41,-7.79 19.60,-6.18 17.76,-4.70 15.91,-3.22 13.97,-1.91 12.04,-0.60 9.18,1.18 6.33,2.96 4.21,3.85 2.08,4.73 1.49,4.92 0.89,5.10 0.27,5.13 -0.35,5.16 -0.96,5.04 -1.57,4.93 -2.14,4.67 -2.71,4.41 -3.20,4.02 -3.69,3.63 -4.07,3.13 -4.45,2.64 -4.70,2.07 -4.95,1.50 -5.06,0.88 -5.17,0.27 -5.12,-0.34 -5.08,-0.97 -4.89,-1.56 -4.70,-2.16 -4.37,-2.69 -4.05,-3.22 -3.60,-3.66 -3.16,-4.10 -2.62,-4.42 -2.08,-4.73 -2.08,-4.73 L -2.08,-4.73 Z"></path></g><g transform="translate(280.2654234409529 132.13904070823537) rotate(0 8.815765322915468 21.975889396447883)" stroke="none"><path fill="#2f9e44" d="M 5.04,-0.84 Q 5.04,-0.84 5.48,2.76 5.92,6.36 7.10,9.90 8.28,13.44 9.58,16.32 10.88,19.21 11.81,21.38 12.75,23.55 14.50,27.20 16.24,30.86 17.99,33.88 19.75,36.91 20.97,38.45 22.18,40.00 22.47,40.66 22.75,41.31 22.86,42.02 22.98,42.72 22.92,43.43 22.87,44.14 22.64,44.82 22.42,45.50 22.04,46.10 21.66,46.70 21.15,47.20 20.63,47.69 20.02,48.05 19.40,48.41 18.72,48.61 18.03,48.81 17.32,48.84 16.61,48.87 15.91,48.73 15.21,48.59 14.56,48.28 13.92,47.98 13.37,47.53 12.81,47.08 12.38,46.51 11.95,45.94 11.55,44.46 11.16,42.98 11.31,42.04 11.46,41.10 11.91,40.25 12.35,39.40 13.05,38.74 13.74,38.08 14.61,37.68 15.48,37.28 16.43,37.17 17.38,37.07 18.31,37.27 19.25,37.47 20.07,37.96 20.89,38.46 21.51,39.18 22.13,39.91 22.49,40.80 22.84,41.69 22.90,42.64 22.95,43.60 22.70,44.52 22.44,45.44 21.91,46.24 21.37,47.03 20.61,47.61 19.85,48.19 18.94,48.50 18.04,48.81 17.08,48.81 16.12,48.81 15.22,48.51 14.31,48.20 13.55,47.62 12.78,47.05 12.25,46.26 11.71,45.47 11.45,44.54 11.19,43.62 11.24,42.67 11.29,41.71 11.64,40.82 12.00,39.93 12.61,39.20 13.23,38.47 14.05,37.98 14.87,37.48 15.80,37.27 16.74,37.07 17.69,37.17 18.64,37.27 19.51,37.67 20.38,38.07 21.08,38.73 21.77,39.38 22.22,40.23 22.67,41.07 22.43,40.54 22.18,40.00 22.47,40.66 22.75,41.31 22.86,42.02 22.98,42.72 22.92,43.43 22.87,44.14 22.64,44.82 22.42,45.49 22.04,46.10 21.66,46.70 21.15,47.20 20.63,47.69 20.02,48.05 19.40,48.41 18.72,48.61 18.03,48.81 17.32,48.84 16.61,48.87 15.91,48.73 15.21,48.59 14.56,48.28 13.92,47.98 13.37,47.53 12.81,47.08 12.38,46.51 11.95,45.94 11.26,45.15 10.57,44.35 9.45,42.14 8.33,39.92 7.22,37.82 6.10,35.72 4.37,31.78 2.65,27.85 1.69,25.57 0.74,23.29 -0.36,20.00 -1.46,16.72 -2.05,14.66 -2.63,12.61 -3.08,10.28 -3.54,7.94 -4.29,4.39 -5.04,0.84 -5.07,0.22 -5.09,-0.39 -4.97,-0.99 -4.85,-1.59 -4.59,-2.15 -4.33,-2.71 -3.94,-3.19 -3.55,-3.67 -3.06,-4.04 -2.57,-4.41 -2.00,-4.66 -1.44,-4.90 -0.83,-5.00 -0.22,-5.10 0.38,-5.06 1.00,-5.01 1.58,-4.82 2.17,-4.62 2.69,-4.30 3.21,-3.97 3.64,-3.53 4.07,-3.08 4.38,-2.55 4.69,-2.02 4.87,-1.43 5.04,-0.84 5.04,-0.84 L 5.04,-0.84 Z"></path></g><g transform="translate(297.0069216533484 174.14024124808725) rotate(0 -14.057621700227173 -2.0373698456752436)" stroke="none"><path fill="#2f9e44" d="M -2.98,5.11 Q -2.98,5.11 -2.18,5.17 -4.37,5.23 -7.03,5.43 -9.70,5.63 -12.09,5.52 -14.48,5.41 -16.72,5.03 -18.95,4.66 -21.13,4.11 -23.32,3.56 -25.50,3.09 -27.68,2.61 -28.45,2.58 -29.21,2.54 -30.24,2.19 -31.27,1.84 -32.13,1.18 -33.00,0.52 -33.60,-0.37 -34.21,-1.27 -34.50,-2.31 -34.79,-3.36 -34.72,-4.45 -34.66,-5.53 -34.26,-6.54 -33.85,-7.55 -33.15,-8.37 -32.44,-9.20 -31.51,-9.75 -30.58,-10.31 -29.52,-10.54 -28.46,-10.77 -27.38,-10.65 -26.30,-10.53 -25.31,-10.07 -24.33,-9.62 -23.54,-8.87 -22.76,-8.12 -22.25,-7.16 -21.74,-6.20 -21.57,-5.12 -21.40,-4.05 -21.58,-2.98 -21.75,-1.91 -22.27,-0.95 -22.78,0.00 -23.57,0.74 -24.36,1.49 -25.35,1.94 -26.33,2.39 -27.41,2.51 -28.49,2.62 -29.55,2.39 -30.61,2.15 -31.54,1.59 -32.47,1.02 -33.17,0.19 -33.87,-0.63 -34.27,-1.64 -34.67,-2.65 -34.73,-3.73 -34.78,-4.81 -34.49,-5.86 -34.19,-6.91 -33.58,-7.80 -32.97,-8.70 -32.10,-9.35 -31.24,-10.01 -30.21,-10.35 -29.18,-10.70 -28.09,-10.69 -27.01,-10.69 -27.01,-10.69 -27.01,-10.69 -24.79,-10.21 -22.58,-9.74 -20.52,-9.04 -18.46,-8.35 -16.21,-7.47 -13.97,-6.59 -11.83,-6.11 -9.70,-5.63 -7.03,-5.43 -4.37,-5.23 -2.18,-5.17 2.98,-5.11 0.61,-5.03 1.22,-4.96 1.79,-4.74 2.37,-4.52 2.88,-4.17 3.38,-3.82 3.79,-3.36 4.20,-2.90 4.49,-2.35 4.77,-1.81 4.92,-1.21 5.07,-0.61 5.07,0.00 5.07,0.61 4.92,1.21 4.77,1.81 4.49,2.35 4.20,2.90 3.79,3.36 3.38,3.82 2.88,4.17 2.37,4.52 1.79,4.74 1.22,4.96 0.61,5.03 -0.00,5.11 -0.00,5.11 L -2.98,5.11 Z"></path></g><g transform="translate(365.84165470279186 166.92370171801213) rotate(0 54.77686716065364 8.852428491669116)" stroke="none"><path fill="#868e96" d="M 0,-1.72 Q 0,-1.72 1.77,-1.74 3.54,-1.77 4.91,-1.84 6.28,-1.91 7.54,-1.95 8.80,-1.98 11.08,-0.33 13.37,1.32 16.07,4.23 18.77,7.14 21.98,9.21 25.18,11.29 28.78,12.22 32.38,13.16 36.36,12.68 40.33,12.20 44.47,11.07 48.61,9.93 52.17,9.18 55.73,8.42 57.91,8.10 60.09,7.79 61.61,7.54 63.12,7.30 66.56,7.98 70.00,8.67 74.24,9.37 78.48,10.06 82.10,10.47 85.71,10.88 89.21,11.24 92.72,11.60 97.71,12.99 102.70,14.38 106.31,15.39 109.91,16.40 110.11,16.49 110.31,16.58 110.47,16.73 110.63,16.88 110.73,17.07 110.83,17.27 110.87,17.48 110.90,17.70 110.87,17.92 110.83,18.13 110.73,18.33 110.63,18.52 110.47,18.67 110.31,18.82 110.11,18.91 109.91,19.00 109.69,19.03 109.48,19.05 109.26,19.00 109.05,18.96 108.86,18.84 108.67,18.73 108.53,18.56 108.39,18.40 108.31,18.19 108.23,17.99 108.22,17.77 108.20,17.55 108.26,17.34 108.32,17.13 108.44,16.95 108.57,16.77 108.74,16.64 108.92,16.50 109.12,16.44 109.33,16.37 109.55,16.37 109.77,16.37 109.98,16.44 110.18,16.51 110.36,16.64 110.53,16.77 110.65,16.95 110.78,17.13 110.83,17.34 110.89,17.55 110.88,17.77 110.87,17.99 110.79,18.19 110.71,18.40 110.57,18.56 110.42,18.73 110.24,18.84 110.05,18.96 109.84,19.00 109.62,19.05 109.40,19.03 109.19,19.00 109.19,19.00 109.19,19.00 105.58,18.01 101.97,17.01 97.20,15.69 92.43,14.36 88.92,14.03 85.41,13.69 81.72,13.31 78.03,12.94 73.72,12.28 69.41,11.63 66.40,11.03 63.38,10.44 61.94,10.47 60.50,10.50 58.41,10.83 56.32,11.15 52.85,11.92 49.38,12.68 45.03,13.90 40.68,15.13 36.18,15.63 31.69,16.13 27.60,15.08 23.50,14.03 19.90,11.79 16.31,9.54 13.70,6.92 11.09,4.30 8.68,3.11 6.28,1.91 4.91,1.84 3.54,1.77 1.77,1.74 0,1.72 -0.20,1.69 -0.41,1.67 -0.60,1.59 -0.80,1.52 -0.97,1.40 -1.14,1.29 -1.28,1.13 -1.41,0.97 -1.51,0.79 -1.61,0.61 -1.66,0.40 -1.71,0.20 -1.71,-0.00 -1.71,-0.20 -1.66,-0.40 -1.61,-0.61 -1.51,-0.79 -1.41,-0.97 -1.28,-1.13 -1.14,-1.29 -0.97,-1.40 -0.80,-1.52 -0.60,-1.59 -0.41,-1.67 -0.20,-1.69 0.00,-1.72 0.00,-1.72 L 0,-1.72 Z"></path></g><g transform="translate(174.26965604040015 233.47959731559376) rotate(0 124.252141698802 23.38579928365857)" stroke="none"><path fill="#868e96" d="M -0.04,-1.56 Q -0.04,-1.56 2.56,-1.60 5.18,-1.65 8.77,-1.66 12.36,-1.67 16.79,-1.67 21.23,-1.67 26.48,-2.01 31.74,-2.36 37.60,-3.17 43.46,-3.99 49.38,-5.08 55.30,-6.17 60.49,-7.16 65.67,-8.15 69.83,-8.81 73.99,-9.47 79.09,-9.73 84.19,-9.99 88.01,-8.91 91.83,-7.84 95.12,-5.00 98.42,-2.16 102.88,3.20 107.35,8.56 110.80,12.32 114.26,16.07 117.67,18.78 121.08,21.50 124.63,23.21 128.18,24.93 134.89,26.51 141.60,28.09 150.16,29.57 158.71,31.05 165.58,32.02 172.45,32.99 177.98,33.73 183.52,34.48 187.98,35.25 192.45,36.02 198.69,38.13 204.92,40.23 212.17,43.44 219.42,46.66 224.97,48.68 230.51,50.70 235.72,51.82 240.94,52.94 244.86,53.78 248.78,54.62 248.97,54.70 249.17,54.78 249.33,54.92 249.50,55.05 249.61,55.24 249.72,55.42 249.76,55.62 249.81,55.83 249.79,56.04 249.77,56.25 249.68,56.45 249.59,56.64 249.44,56.80 249.30,56.95 249.11,57.05 248.92,57.15 248.71,57.19 248.50,57.22 248.30,57.19 248.09,57.15 247.90,57.06 247.71,56.96 247.56,56.80 247.42,56.65 247.33,56.46 247.24,56.27 247.21,56.05 247.19,55.84 247.23,55.64 247.28,55.43 247.39,55.24 247.49,55.06 247.66,54.92 247.82,54.79 248.01,54.71 248.21,54.63 248.42,54.61 248.64,54.60 248.84,54.66 249.05,54.71 249.22,54.83 249.40,54.95 249.53,55.12 249.66,55.29 249.73,55.49 249.79,55.69 249.80,55.90 249.80,56.12 249.73,56.32 249.66,56.52 249.53,56.69 249.41,56.86 249.23,56.98 249.06,57.10 248.85,57.16 248.65,57.21 248.43,57.20 248.22,57.19 248.22,57.19 248.22,57.19 244.30,56.35 240.39,55.50 235.00,54.34 229.61,53.17 223.99,51.11 218.36,49.06 211.22,45.89 204.08,42.72 198.04,40.67 192.00,38.61 187.58,37.85 183.17,37.08 177.62,36.33 172.08,35.59 165.17,34.61 158.27,33.64 149.63,32.14 140.99,30.65 134.01,28.97 127.03,27.30 123.24,25.43 119.44,23.56 115.88,20.71 112.32,17.85 108.82,14.05 105.32,10.25 100.99,5.03 96.67,-0.18 93.83,-2.76 90.99,-5.35 87.64,-6.35 84.28,-7.35 79.34,-7.09 74.41,-6.84 70.29,-6.18 66.18,-5.51 60.98,-4.51 55.79,-3.52 49.82,-2.40 43.84,-1.29 37.88,-0.44 31.93,0.39 26.58,0.77 21.24,1.14 16.81,1.17 12.39,1.21 8.83,1.27 5.27,1.33 2.66,1.44 0.04,1.56 -0.13,1.54 -0.32,1.52 -0.50,1.46 -0.68,1.40 -0.84,1.30 -0.99,1.20 -1.12,1.06 -1.25,0.92 -1.35,0.76 -1.44,0.59 -1.49,0.41 -1.54,0.23 -1.55,0.04 -1.55,-0.13 -1.51,-0.32 -1.47,-0.50 -1.39,-0.67 -1.31,-0.84 -1.19,-0.99 -1.07,-1.13 -0.92,-1.24 -0.76,-1.36 -0.59,-1.43 -0.42,-1.50 -0.23,-1.53 -0.04,-1.56 -0.04,-1.56 L -0.04,-1.56 Z"></path></g><g transform="translate(136.8326886114337 353.2399252549185) rotate(0 109.91066823441179 8.513738952739459)" stroke="none"><path fill="#868e96" d="M 0,-1.56 Q 0,-1.56 2.19,-1.52 4.38,-1.49 6.83,-1.46 9.29,-1.44 11.51,-1.42 13.72,-1.40 15.83,-1.73 17.94,-2.06 20.40,-3.03 22.86,-3.99 25.34,-5.27 27.81,-6.55 30.14,-7.79 32.48,-9.03 35.62,-10.03 38.76,-11.02 41.37,-10.96 43.97,-10.90 46.58,-9.65 49.19,-8.40 54.25,-4.56 59.31,-0.73 64.48,2.64 69.65,6.02 79.92,10.09 90.19,14.16 103.22,16.18 116.26,18.20 125.32,19.07 134.38,19.94 141.08,20.31 147.78,20.68 155.69,21.35 163.59,22.02 170.09,22.99 176.58,23.97 186.53,24.74 196.47,25.51 203.20,25.90 209.93,26.29 214.91,26.58 219.89,26.87 220.10,26.91 220.31,26.96 220.49,27.07 220.67,27.18 220.81,27.34 220.94,27.51 221.02,27.70 221.10,27.90 221.11,28.11 221.12,28.33 221.06,28.53 221.01,28.74 220.89,28.91 220.77,29.09 220.60,29.21 220.43,29.34 220.23,29.41 220.02,29.48 219.81,29.48 219.60,29.48 219.40,29.41 219.20,29.34 219.03,29.21 218.86,29.08 218.74,28.90 218.62,28.73 218.57,28.52 218.51,28.32 218.52,28.10 218.53,27.89 218.61,27.70 218.69,27.50 218.83,27.34 218.97,27.18 219.15,27.07 219.33,26.96 219.54,26.91 219.75,26.87 219.96,26.89 220.17,26.92 220.37,27.01 220.56,27.10 220.71,27.24 220.87,27.39 220.96,27.58 221.06,27.76 221.10,27.97 221.13,28.18 221.09,28.39 221.06,28.60 220.96,28.79 220.86,28.98 220.70,29.12 220.55,29.27 220.36,29.36 220.16,29.45 219.95,29.47 219.74,29.49 219.74,29.49 219.74,29.49 214.76,29.20 209.77,28.91 203.02,28.52 196.27,28.13 186.23,27.35 176.19,26.57 169.78,25.60 163.37,24.63 155.50,23.97 147.63,23.30 140.88,22.93 134.12,22.56 124.99,21.68 115.85,20.80 102.54,18.71 89.23,16.61 78.72,12.42 68.21,8.23 62.96,4.80 57.71,1.36 52.86,-2.33 48.00,-6.04 45.89,-7.16 43.78,-8.27 41.65,-8.37 39.51,-8.47 36.62,-7.57 33.73,-6.67 31.39,-5.41 29.05,-4.15 26.45,-2.80 23.86,-1.45 21.12,-0.39 18.38,0.66 16.06,1.03 13.73,1.40 11.51,1.42 9.29,1.44 6.83,1.46 4.38,1.49 2.19,1.52 0,1.56 -0.18,1.53 -0.37,1.51 -0.54,1.45 -0.72,1.38 -0.88,1.27 -1.03,1.16 -1.16,1.02 -1.28,0.88 -1.37,0.72 -1.46,0.55 -1.50,0.37 -1.55,0.18 -1.55,-0.00 -1.55,-0.18 -1.50,-0.37 -1.46,-0.55 -1.37,-0.72 -1.28,-0.88 -1.16,-1.02 -1.03,-1.16 -0.88,-1.27 -0.72,-1.38 -0.54,-1.45 -0.37,-1.51 -0.18,-1.53 0.00,-1.56 0.00,-1.56 L 0,-1.56 Z"></path></g></svg>